# xmcd
#
# Track frame offsets:
#	150
#	13822
#	26933
#	40388
#	54804
#	70756
#	85321
#	98269
#	108730
#	121899
#	134623
#	146483
#	163590
#	175539
#	187877
#	202928
#	214704
#	227772
#	243673
#	258949
#
# Disc length: 3661 seconds
#
# Revision: 0
# Processed by: cddbd v1.5.2PL0 Copyright (c) Steve Scherf et al.
# Submitted via: EasyCDDAExtractor 10.0.6.1
#
DISCID=0f0e4b14
DTITLE=Foster and Allen - The Country Collection
DYEAR=2007
DGENRE=Country
TTITLE0=Devil Woman
TTITLE1=Distant Drums
TTITLE2=There Goes My Everything
TTITLE3=Jambalaya
TTITLE4=Sweet Baby Mine
TTITLE5=Wand'rin' Star
TTITLE6=You're My Best Friend
TTITLE7=Walk on By (Wait on the Corner)
TTITLE8=On My Mind
TTITLE9=The Wabash Cannonball
TTITLE10=Walk Tall
TTITLE11=Nobody's Child
TTITLE12=Would You Lay with Me (In a Field of Stone)
TTITLE13=Wild in the Country
TTITLE14=Jimmy Brown the Newsboy
TTITLE15=Born to be With You
TTITLE16=Roses are Red
TTITLE17=Once Upon a Time
TTITLE18=Oh, Dearest One
TTITLE19=Lucille
EXTD=
EXTT0=
EXTT1=
EXTT2=
EXTT3=
EXTT4=
EXTT5=
EXTT6=
EXTT7=
EXTT8=
EXTT9=
EXTT10=
EXTT11=
EXTT12=
EXTT13=
EXTT14=
EXTT15=
EXTT16=
EXTT17=
EXTT18=
EXTT19=
PLAYORDER=
